# xmcd
# Track frame offsets:
# 150
# 20677
# 34832
# 53737
# 71344
# 89077
# 107060
# 124957
# 139727
# 156598
# 173929
# 187015
# 205199
# 224592
# 248034
#
# Disc length: 3616 seconds
# Revision: 0
# Processed by: cddbd v1.5.1PL2 Copyright (c) Steve Scherf et al.
# Submitted via: VisiTrax 2.9.10.228 - For more info visit www.synapsa.com
#
DISCID=e70e1e0f
DTITLE=MacNeil.Rita. - Common Dream
DYEAR=2002
DGENRE=Country
TTITLE0=Common Dream.
TTITLE1=He's Leading Me On.
TTITLE2=Peace In The valley.
TTITLE3=Sweet Wisdome.
TTITLE4=Said I Was'nt Gonna Tell Nobody.
TTITLE5=A little Understanding.
TTITLE6=When We Overcome.
TTITLE7=Lucky Old Sun.
TTITLE8=Take Comfort.
TTITLE9=Speaks To My Soul.
TTITLE10=You Never Know
TTITLE11=Angels.
TTITLE12=Today It Is Yours (Angie's song)
TTITLE13=Higher Power.
TTITLE14=I Shall Not Walk Alone.
EXTD=CO3408
EXTT0=
EXTT1=
EXTT2=
EXTT3=
EXTT4=
EXTT5=
EXTT6=
EXTT7=
EXTT8=
EXTT9=
EXTT10=
EXTT11=
EXTT12=
EXTT13=
EXTT14=
PLAYORDER=
